.
 
http://www.scenetime.com    -   SceneTime [ We been having it ] !!!


How come you press harder on a remote control when you know the battery is dead? so you better seed to get speed ;)

        Seed back for speed


...................................NFO:.................................................                                                                                                     
       
     
     
       
       
     
     
                                         
                                         
                EXVID                    
                                         
         
                                         
         Filled the Archives             
                                         
         
                                         
                With:                    
                                         
         
                                         
                                    
     E240                           
                                    
     SP               (C) 2009      
                                         
     
     
     
                                                                                  
                                                                                   
                 Saw.VII.2010.UNRATED.DVDRip.XviD-EXViD                             
                                                                                   
                                                                                  
     
                                                                                               
EXViD aims to iNTERNAL those releases which have been lost in the archives.
EXViD aims to PRE non-internal releases which have poor sources and are likely skipped by others.
 
http://www.imdb.com/title/tt1477076/
Subtitles: NL
Date: 2011.06

Director: Kevin Greutert

Genres: Crime | Horror | Mystery | Thriller

Plot:
As a deadly battle rages over Jigsaw's brutal legacy, a group of Jigsaw survivors gathers to seek
the support of self-help guru and fellow survivor Bobby Dagen, a man whose own dark secrets unleash
a new wave of terror.

Cast:
Tobin Bell 	 ... 	Jigsaw / John Kramer 
Costas Mandylor 	 ... 	Det. Mark Hoffman 
Betsy Russell 	 ... 	Jill Tuck 
Cary Elwes 	 ... 	Dr. Lawrence Gordon 
Sean Patrick Flanery 	 ... 	Bobby Dagen 
Chad Donella 	 ... 	 Det. Matt Gibson 
Gina Holden 	 ... 	 Joyce Dagen 
Laurence Anthony 	 ... 	 Det. Rogers 
Dean Armstrong 	 ... 	Cale 
Naomi Snieckus 	 ... 	 Nina 
Rebecca Marshall 	 ... 	 Suzanne 
James Van Patten 	 ... 	Dr. Heffner 
Sebastian Pigott 	 ... 	 Brad 
Jon Cor 	 ... 	 Ryan 
Anne Lee Greene 	 ... 	 Dina (as Anne Greene)	

Stats:
Format                           : AVI
Format/Info                      : Audio Video Interleave
File size                        : 702 MiB
Duration                         : 1h 26mn
Overall bit rate                 : 1 134 Kbps
Writing application              : VirtualDubMod 1.5.10.2 (build 2540/release)
Writing library                  : VirtualDubMod build 2540/release

Video
ID                               : 0
Format                           : MPEG-4 Visual
Format profile                   : Advanced Simple@L5
Format settings, BVOP            : Yes
Format settings, QPel            : No
Format settings, GMC             : No warppoints
Format settings, Matrix          : Default (H.263)
Muxing mode                      : Packed bitstream
Codec ID                         : XVID
Codec ID/Hint                    : XviD
Duration                         : 1h 26mn
Bit rate                         : 997 Kbps
Width                            : 624 pixels
Height                           : 352 pixels
Display aspect ratio             : 16:9
Frame rate                       : 25.000 fps
Color space                      : YUV
Chroma subsampling               : 4:2:0
Bit depth                        : 8 bits
Scan type                        : Progressive
Bits/(Pixel*Frame)               : 0.182
Stream size                      : 616 MiB (88%)
Writing library                  : XviD 62

Audio
ID                               : 1
Format                           : MPEG Audio
Format version                   : Version 1
Format profile                   : Layer 3
Mode                             : Joint stereo
Mode extension                   : MS Stereo
Codec ID                         : 55
Codec ID/Hint                    : MP3
Duration                         : 1h 26mn
Bit rate mode                    : Variable
Bit rate                         : 128 Kbps
Channel(s)                       : 2 channels
Sampling rate                    : 48.0 KHz
Stream size                      : 77.2 MiB (11%)
Alignment                        : Aligned on interleaves
Interleave, duration             : 24 ms (0.60 video frame)
Interleave, preload duration     : 410 ms
Writing library                  : LAME3.90.
Encoding settings                : -m j -V 4 -q 2 -lowpass 17.6 --abr 128




Release notes:
The Jigsaw release is the THEATRiCAL cut of this movie. This one is UNRATED (not much differences anyway).

More info and differences between the two cuts at http://www.movie-censorship.com/report.php?ID=94601

enjoy!

Looking for:
75TB+ Archives
DUTCH/FLEMiSH Archives
                                                                                                    
Greets: CRBS EPiSODE FiCO FLS iLS KLASSiGER LiPSYNC MADE NODLABS RUNNER SPRiNTER      
   

                                                                    ASCII DONE BY XX^NFO 2oo9